<?xml version="1.0" encoding="UTF-8" standalone="no"?>
<!DOCTYPE svg PUBLIC "-//W3C//DTD SVG 1.1//EN"
 "http://www.w3.org/Graphics/SVG/1.1/DTD/svg11.dtd">
<!-- Generated by graphviz version 2.43.0 (0)
 -->
<!-- Title: %3 Pages: 1 -->
<svg width="1126pt" height="710pt"
 viewBox="0.00 0.00 1126.32 709.74" xmlns="http://www.w3.org/2000/svg" xmlns:xlink="http://www.w3.org/1999/xlink">
<g id="graph0" class="graph" transform="scale(1 1) rotate(0) translate(4 705.74)">
<title>%3</title>
<polygon fill="white" stroke="transparent" points="-4,4 -4,-705.74 1122.32,-705.74 1122.32,4 -4,4"/>
<!-- bash_login -->
<g id="node1" class="node">
<title>bash_login</title>
<ellipse fill="none" stroke="black" cx="496.24" cy="-522" rx="33.6" ry="18"/>
<text text-anchor="middle" x="496.24" y="-518.3" font-family="Times,serif" font-size="14.00">login</text>
</g>
<!-- bash_interactive -->
<g id="node3" class="node">
<title>bash_interactive</title>
<ellipse fill="none" stroke="black" cx="469.24" cy="-450" rx="61.19" ry="18"/>
<text text-anchor="middle" x="469.24" y="-446.3" font-family="Times,serif" font-size="14.00">interactive</text>
</g>
<!-- bash_login&#45;&gt;bash_interactive -->
<g id="edge3" class="edge">
<title>bash_login&#45;&gt;bash_interactive</title>
<path fill="none" stroke="red" d="M484.36,-505.12C480.32,-497.06 476.18,-487.05 473.01,-477.84"/>
<polygon fill="red" stroke="red" points="476.35,-476.78 470,-468.29 469.67,-478.88 476.35,-476.78"/>
</g>
<!-- bash_login&#45;&gt;bash_interactive -->
<g id="edge36" class="edge">
<title>bash_login&#45;&gt;bash_interactive</title>
<path fill="none" stroke="purple" d="M495.48,-503.7C493.23,-495.73 489.73,-486.1 485.93,-477.26"/>
<polygon fill="purple" stroke="purple" points="489.08,-475.74 481.74,-468.1 482.72,-478.65 489.08,-475.74"/>
</g>
<!-- bash_non_interactive -->
<g id="node4" class="node">
<title>bash_non_interactive</title>
<ellipse fill="none" stroke="black" cx="629.24" cy="-450" rx="81.49" ry="18"/>
<text text-anchor="middle" x="629.24" y="-446.3" font-family="Times,serif" font-size="14.00">non&#45;interactive</text>
</g>
<!-- bash_login&#45;&gt;bash_non_interactive -->
<g id="edge14" class="edge">
<title>bash_login&#45;&gt;bash_non_interactive</title>
<path fill="none" stroke="orange" d="M516.43,-507.5C534.77,-497.09 562.22,-482.52 585.5,-470.79"/>
<polygon fill="orange" stroke="orange" points="587.14,-473.88 594.52,-466.28 584.01,-467.62 587.14,-473.88"/>
</g>
<!-- bash_login&#45;&gt;bash_non_interactive -->
<g id="edge48" class="edge">
<title>bash_login&#45;&gt;bash_non_interactive</title>
<path fill="none" stroke="black" d="M522.09,-510.06C542.95,-499.99 572.27,-484.77 595.04,-472.3"/>
<polygon fill="black" stroke="black" points="596.98,-475.23 604.04,-467.32 593.59,-469.1 596.98,-475.23"/>
</g>
<!-- bash_non_login -->
<g id="node2" class="node">
<title>bash_non_login</title>
<ellipse fill="none" stroke="black" cx="629.24" cy="-522" rx="53.89" ry="18"/>
<text text-anchor="middle" x="629.24" y="-518.3" font-family="Times,serif" font-size="14.00">non&#45;login</text>
</g>
<!-- bash_non_login&#45;&gt;bash_interactive -->
<g id="edge26" class="edge">
<title>bash_non_login&#45;&gt;bash_interactive</title>
<path fill="none" stroke="green" d="M597.63,-507.17C572.87,-496.34 538.19,-481.16 511.12,-469.32"/>
<polygon fill="green" stroke="green" points="512.45,-466.08 501.89,-465.28 509.65,-472.5 512.45,-466.08"/>
</g>
<!-- bash_non_login&#45;&gt;bash_non_interactive -->
<g id="edge32" class="edge">
<title>bash_non_login&#45;&gt;bash_non_interactive</title>
<path fill="none" stroke="blue" d="M623.36,-504.05C622.55,-496.35 622.3,-487.03 622.64,-478.36"/>
<polygon fill="blue" stroke="blue" points="626.14,-478.49 623.33,-468.28 619.15,-478.01 626.14,-478.49"/>
</g>
<!-- bash_non_login&#45;&gt;bash_non_interactive -->
<g id="edge59" class="edge">
<title>bash_non_login&#45;&gt;bash_non_interactive</title>
<path fill="none" stroke="grey" d="M635.12,-504.05C635.94,-496.35 636.18,-487.03 635.85,-478.36"/>
<polygon fill="grey" stroke="grey" points="639.33,-478.01 635.16,-468.28 632.35,-478.49 639.33,-478.01"/>
</g>
<!-- etc_profile -->
<g id="node18" class="node">
<title>etc_profile</title>
<ellipse fill="none" stroke="black" cx="469.24" cy="-378" rx="61.19" ry="18"/>
<text text-anchor="middle" x="469.24" y="-374.3" font-family="Times,serif" font-size="14.00">/etc/profile</text>
</g>
<!-- bash_interactive&#45;&gt;etc_profile -->
<g id="edge4" class="edge">
<title>bash_interactive&#45;&gt;etc_profile</title>
<path fill="none" stroke="red" d="M463.36,-432.05C462.55,-424.35 462.3,-415.03 462.64,-406.36"/>
<polygon fill="red" stroke="red" points="466.14,-406.49 463.33,-396.28 459.15,-406.01 466.14,-406.49"/>
</g>
<!-- bash_interactive&#45;&gt;etc_profile -->
<g id="edge37" class="edge">
<title>bash_interactive&#45;&gt;etc_profile</title>
<path fill="none" stroke="purple" d="M475.12,-432.05C475.94,-424.35 476.18,-415.03 475.85,-406.36"/>
<polygon fill="purple" stroke="purple" points="479.33,-406.01 475.16,-396.28 472.35,-406.49 479.33,-406.01"/>
</g>
<!-- etc_bashrc -->
<g id="node22" class="node">
<title>etc_bashrc</title>
<ellipse fill="none" stroke="black" cx="629.24" cy="-306" rx="87.18" ry="18"/>
<text text-anchor="middle" x="629.24" y="-302.3" font-family="Times,serif" font-size="14.00">/etc/bash.bashrc</text>
</g>
<!-- bash_interactive&#45;&gt;etc_bashrc -->
<g id="edge27" class="edge">
<title>bash_interactive&#45;&gt;etc_bashrc</title>
<path fill="none" stroke="green" d="M491.58,-433.25C505.62,-423.06 523.92,-409.28 539.24,-396 563.22,-375.23 588.78,-349.58 606.51,-331.16"/>
<polygon fill="green" stroke="green" points="609.22,-333.39 613.6,-323.74 604.16,-328.55 609.22,-333.39"/>
</g>
<!-- bash_non_interactive&#45;&gt;etc_profile -->
<g id="edge15" class="edge">
<title>bash_non_interactive&#45;&gt;etc_profile</title>
<path fill="none" stroke="orange" d="M589.67,-434.15C564.37,-423.66 531.83,-409.49 506.9,-398.14"/>
<polygon fill="orange" stroke="orange" points="508.3,-394.93 497.75,-393.94 505.38,-401.3 508.3,-394.93"/>
</g>
<!-- bash_non_interactive&#45;&gt;etc_profile -->
<g id="edge49" class="edge">
<title>bash_non_interactive&#45;&gt;etc_profile</title>
<path fill="none" stroke="black" d="M598.7,-433.12C575.07,-422.23 542.12,-407.79 515.32,-396.56"/>
<polygon fill="black" stroke="black" points="516.33,-393.19 505.75,-392.58 513.64,-399.65 516.33,-393.19"/>
</g>
<!-- bash_non_interactive&#45;&gt;etc_bashrc -->
<g id="edge60" class="edge">
<title>bash_non_interactive&#45;&gt;etc_bashrc</title>
<path fill="none" stroke="grey" d="M629.24,-431.87C629.24,-407.67 629.24,-363.21 629.24,-334.39"/>
<polygon fill="grey" stroke="grey" points="632.74,-334.19 629.24,-324.19 625.74,-334.19 632.74,-334.19"/>
</g>
<!-- bash_env -->
<g id="node32" class="node">
<title>bash_env</title>
<ellipse fill="none" stroke="black" cx="492.24" cy="-162" rx="69.59" ry="18"/>
<text text-anchor="middle" x="492.24" y="-158.3" font-family="Times,serif" font-size="14.00">$BASH_ENV</text>
</g>
<!-- bash_non_interactive&#45;&gt;bash_env -->
<g id="edge33" class="edge">
<title>bash_non_interactive&#45;&gt;bash_env</title>
<path fill="none" stroke="blue" d="M659.11,-433.19C727.22,-395.18 883.09,-295.89 815.24,-216 784.58,-179.89 656.86,-168.34 571.5,-164.67"/>
<polygon fill="blue" stroke="blue" points="571.45,-161.16 561.31,-164.26 571.17,-168.16 571.45,-161.16"/>
</g>
<!-- bash_remote -->
<g id="node5" class="node">
<title>bash_remote</title>
<ellipse fill="none" stroke="black" cx="411.24" cy="-602.87" rx="131.54" ry="26.74"/>
<text text-anchor="middle" x="411.24" y="-606.67" font-family="Times,serif" font-size="14.00">remote shell</text>
<text text-anchor="middle" x="411.24" y="-591.67" font-family="Times,serif" font-size="14.00">(running under rsh/ssh)</text>
</g>
<!-- bash_remote&#45;&gt;bash_login -->
<g id="edge35" class="edge">
<title>bash_remote&#45;&gt;bash_login</title>
<path fill="none" stroke="purple" d="M432.7,-576.05C443.58,-565.39 456.83,-553.22 468.47,-543.22"/>
<polygon fill="purple" stroke="purple" points="470.82,-545.82 476.22,-536.7 466.31,-540.46 470.82,-545.82"/>
</g>
<!-- bash_remote&#45;&gt;bash_login -->
<g id="edge47" class="edge">
<title>bash_remote&#45;&gt;bash_login</title>
<path fill="none" stroke="black" d="M444.96,-576.48C455.94,-566.82 467.71,-555.86 477.27,-546.39"/>
<polygon fill="black" stroke="black" points="479.86,-548.74 484.4,-539.16 474.88,-543.82 479.86,-548.74"/>
</g>
<!-- bash_remote&#45;&gt;bash_non_login -->
<g id="edge58" class="edge">
<title>bash_remote&#45;&gt;bash_non_login</title>
<path fill="none" stroke="grey" d="M474,-579.16C509.34,-566.38 552.64,-550.71 584.52,-539.18"/>
<polygon fill="grey" stroke="grey" points="585.81,-542.43 594.03,-535.74 583.43,-535.85 585.81,-542.43"/>
</g>
<!-- bash_local -->
<g id="node6" class="node">
<title>bash_local</title>
<ellipse fill="none" stroke="black" cx="629.24" cy="-602.87" rx="68.49" ry="18"/>
<text text-anchor="middle" x="629.24" y="-599.17" font-family="Times,serif" font-size="14.00">normal shell</text>
</g>
<!-- bash_local&#45;&gt;bash_login -->
<g id="edge2" class="edge">
<title>bash_local&#45;&gt;bash_login</title>
<path fill="none" stroke="red" d="M598.14,-586.66C575.36,-574.07 544.9,-556.1 523.16,-542.47"/>
<polygon fill="red" stroke="red" points="525.02,-539.51 514.7,-537.1 521.27,-545.42 525.02,-539.51"/>
</g>
<!-- bash_local&#45;&gt;bash_login -->
<g id="edge13" class="edge">
<title>bash_local&#45;&gt;bash_login</title>
<path fill="none" stroke="orange" d="M607.58,-585.72C586.36,-572.21 554.02,-553.03 529.57,-539.44"/>
<polygon fill="orange" stroke="orange" points="531.07,-536.27 520.62,-534.53 527.71,-542.41 531.07,-536.27"/>
</g>
<!-- bash_local&#45;&gt;bash_non_login -->
<g id="edge25" class="edge">
<title>bash_local&#45;&gt;bash_non_login</title>
<path fill="none" stroke="green" d="M623.56,-584.76C622.47,-574.63 622.21,-561.57 622.8,-550.07"/>
<polygon fill="green" stroke="green" points="626.29,-550.32 623.57,-540.08 619.31,-549.78 626.29,-550.32"/>
</g>
<!-- bash_local&#45;&gt;bash_non_login -->
<g id="edge31" class="edge">
<title>bash_local&#45;&gt;bash_non_login</title>
<path fill="none" stroke="blue" d="M634.92,-584.76C636.02,-574.63 636.27,-561.57 635.69,-550.07"/>
<polygon fill="blue" stroke="blue" points="639.18,-549.78 634.92,-540.08 632.2,-550.32 639.18,-549.78"/>
</g>
<!-- sh_login -->
<g id="node7" class="node">
<title>sh_login</title>
<ellipse fill="none" stroke="black" cx="214.24" cy="-378" rx="33.6" ry="18"/>
<text text-anchor="middle" x="214.24" y="-374.3" font-family="Times,serif" font-size="14.00">login</text>
</g>
<!-- sh_interactive -->
<g id="node9" class="node">
<title>sh_interactive</title>
<ellipse fill="none" stroke="black" cx="241.24" cy="-306" rx="61.19" ry="18"/>
<text text-anchor="middle" x="241.24" y="-302.3" font-family="Times,serif" font-size="14.00">interactive</text>
</g>
<!-- sh_login&#45;&gt;sh_interactive -->
<g id="edge92" class="edge">
<title>sh_login&#45;&gt;sh_interactive</title>
<path fill="none" stroke="red" stroke-dasharray="5,2" d="M220.78,-360.05C223.82,-352.18 227.5,-342.62 230.91,-333.79"/>
<polygon fill="red" stroke="red" points="234.25,-334.86 234.58,-324.28 227.72,-332.35 234.25,-334.86"/>
</g>
<!-- sh_non_interactive -->
<g id="node10" class="node">
<title>sh_non_interactive</title>
<ellipse fill="none" stroke="black" cx="81.24" cy="-306" rx="81.49" ry="18"/>
<text text-anchor="middle" x="81.24" y="-302.3" font-family="Times,serif" font-size="14.00">non&#45;interactive</text>
</g>
<!-- sh_login&#45;&gt;sh_non_interactive -->
<g id="edge97" class="edge">
<title>sh_login&#45;&gt;sh_non_interactive</title>
<path fill="none" stroke="orange" stroke-dasharray="5,2" d="M191.08,-364.81C171.71,-354.62 143.67,-339.86 120.77,-327.8"/>
<polygon fill="orange" stroke="orange" points="122.11,-324.55 111.63,-322.99 118.85,-330.75 122.11,-324.55"/>
</g>
<!-- sh_non_login -->
<g id="node8" class="node">
<title>sh_non_login</title>
<ellipse fill="none" stroke="black" cx="108.24" cy="-378" rx="53.89" ry="18"/>
<text text-anchor="middle" x="108.24" y="-374.3" font-family="Times,serif" font-size="14.00">non&#45;login</text>
</g>
<!-- sh_non_login&#45;&gt;sh_interactive -->
<g id="edge101" class="edge">
<title>sh_non_login&#45;&gt;sh_interactive</title>
<path fill="none" stroke="green" stroke-dasharray="5,2" d="M135.8,-362.5C155.51,-352.12 182.26,-338.04 203.88,-326.66"/>
<polygon fill="green" stroke="green" points="205.58,-329.72 212.8,-321.97 202.32,-323.53 205.58,-329.72"/>
</g>
<!-- sh_non_login&#45;&gt;sh_non_interactive -->
<g id="edge105" class="edge">
<title>sh_non_login&#45;&gt;sh_non_interactive</title>
<path fill="none" stroke="blue" stroke-dasharray="5,2" d="M101.71,-360.05C98.67,-352.18 94.98,-342.62 91.58,-333.79"/>
<polygon fill="blue" stroke="blue" points="94.77,-332.35 87.91,-324.28 88.24,-334.86 94.77,-332.35"/>
</g>
<!-- dot_profile -->
<g id="node21" class="node">
<title>dot_profile</title>
<ellipse fill="none" stroke="black" cx="276.24" cy="-234" rx="54.69" ry="18"/>
<text text-anchor="middle" x="276.24" y="-230.3" font-family="Times,serif" font-size="14.00">~/.profile</text>
</g>
<!-- sh_interactive&#45;&gt;dot_profile -->
<g id="edge93" class="edge">
<title>sh_interactive&#45;&gt;dot_profile</title>
<path fill="none" stroke="red" stroke-dasharray="5,2" d="M249.72,-288.05C253.8,-279.89 258.79,-269.91 263.33,-260.82"/>
<polygon fill="red" stroke="red" points="266.51,-262.3 267.85,-251.79 260.25,-259.17 266.51,-262.3"/>
</g>
<!-- env -->
<g id="node31" class="node">
<title>env</title>
<ellipse fill="none" stroke="black" cx="198.24" cy="-162" rx="37.89" ry="18"/>
<text text-anchor="middle" x="198.24" y="-158.3" font-family="Times,serif" font-size="14.00">$ENV</text>
</g>
<!-- sh_interactive&#45;&gt;env -->
<g id="edge102" class="edge">
<title>sh_interactive&#45;&gt;env</title>
<path fill="none" stroke="green" stroke-dasharray="5,2" d="M229.99,-288.03C223.82,-277.96 216.57,-264.71 212.24,-252 205.4,-231.92 201.88,-208.14 200.08,-190.21"/>
<polygon fill="green" stroke="green" points="203.56,-189.8 199.19,-180.15 196.59,-190.42 203.56,-189.8"/>
</g>
<!-- sh_running -->
<g id="node16" class="node">
<title>sh_running</title>
<ellipse fill="none" stroke="black" cx="236.24" cy="-90" rx="55.79" ry="18"/>
<text text-anchor="middle" x="236.24" y="-86.3" font-family="Times,serif" font-size="14.00">running...</text>
</g>
<!-- sh_non_interactive&#45;&gt;sh_running -->
<g id="edge106" class="edge">
<title>sh_non_interactive&#45;&gt;sh_running</title>
<path fill="none" stroke="blue" stroke-dasharray="5,2" d="M85.07,-287.91C92.86,-256.36 113.12,-188.2 151.24,-144 163.4,-129.91 180.24,-118.34 195.73,-109.64"/>
<polygon fill="blue" stroke="blue" points="197.49,-112.67 204.65,-104.86 194.18,-106.5 197.49,-112.67"/>
</g>
<!-- sh_non_interactive&#45;&gt;dot_profile -->
<g id="edge98" class="edge">
<title>sh_non_interactive&#45;&gt;dot_profile</title>
<path fill="none" stroke="orange" stroke-dasharray="5,2" d="M122.12,-290.33C153.9,-278.92 197.96,-263.1 230.84,-251.3"/>
<polygon fill="orange" stroke="orange" points="232.43,-254.45 240.66,-247.77 230.06,-247.86 232.43,-254.45"/>
</g>
<!-- zsh_login -->
<g id="node11" class="node">
<title>zsh_login</title>
<ellipse fill="none" stroke="black" cx="789.24" cy="-602.87" rx="33.6" ry="18"/>
<text text-anchor="middle" x="789.24" y="-599.17" font-family="Times,serif" font-size="14.00">login</text>
</g>
<!-- zsh_interactive -->
<g id="node13" class="node">
<title>zsh_interactive</title>
<ellipse fill="none" stroke="black" cx="762.24" cy="-522" rx="61.19" ry="18"/>
<text text-anchor="middle" x="762.24" y="-518.3" font-family="Times,serif" font-size="14.00">interactive</text>
</g>
<!-- zsh_login&#45;&gt;zsh_interactive -->
<g id="edge64" class="edge">
<title>zsh_login&#45;&gt;zsh_interactive</title>
<path fill="none" stroke="red" d="M783.38,-584.76C779.88,-574.52 775.36,-561.3 771.39,-549.72"/>
<polygon fill="red" stroke="red" points="774.64,-548.41 768.09,-540.08 768.02,-550.67 774.64,-548.41"/>
</g>
<!-- zsh_non_interactive -->
<g id="node14" class="node">
<title>zsh_non_interactive</title>
<ellipse fill="none" stroke="black" cx="922.24" cy="-522" rx="81.49" ry="18"/>
<text text-anchor="middle" x="922.24" y="-518.3" font-family="Times,serif" font-size="14.00">non&#45;interactive</text>
</g>
<!-- zsh_login&#45;&gt;zsh_non_interactive -->
<g id="edge73" class="edge">
<title>zsh_login&#45;&gt;zsh_non_interactive</title>
<path fill="none" stroke="orange" d="M810.65,-588.93C817.54,-584.79 825.21,-580.19 832.24,-576 849.86,-565.51 869.47,-553.95 885.88,-544.31"/>
<polygon fill="orange" stroke="orange" points="887.78,-547.25 894.63,-539.17 884.23,-541.22 887.78,-547.25"/>
</g>
<!-- zsh_non_login -->
<g id="node12" class="node">
<title>zsh_non_login</title>
<ellipse fill="none" stroke="black" cx="895.24" cy="-602.87" rx="53.89" ry="18"/>
<text text-anchor="middle" x="895.24" y="-599.17" font-family="Times,serif" font-size="14.00">non&#45;login</text>
</g>
<!-- zsh_non_login&#45;&gt;zsh_interactive -->
<g id="edge81" class="edge">
<title>zsh_non_login&#45;&gt;zsh_interactive</title>
<path fill="none" stroke="green" d="M869.91,-586.85C849.29,-574.62 819.95,-557.22 797.1,-543.67"/>
<polygon fill="green" stroke="green" points="798.77,-540.59 788.39,-538.5 795.2,-546.61 798.77,-540.59"/>
</g>
<!-- zsh_non_login&#45;&gt;zsh_non_interactive -->
<g id="edge87" class="edge">
<title>zsh_non_login&#45;&gt;zsh_non_interactive</title>
<path fill="none" stroke="blue" d="M901.1,-584.76C904.6,-574.52 909.13,-561.3 913.1,-549.72"/>
<polygon fill="blue" stroke="blue" points="916.47,-550.67 916.4,-540.08 909.85,-548.41 916.47,-550.67"/>
</g>
<!-- etc_zshenv -->
<g id="node23" class="node">
<title>etc_zshenv</title>
<ellipse fill="none" stroke="black" cx="922.24" cy="-450" rx="63.09" ry="18"/>
<text text-anchor="middle" x="922.24" y="-446.3" font-family="Times,serif" font-size="14.00">/etc/zshenv</text>
</g>
<!-- zsh_interactive&#45;&gt;etc_zshenv -->
<g id="edge65" class="edge">
<title>zsh_interactive&#45;&gt;etc_zshenv</title>
<path fill="none" stroke="red" d="M790.91,-505.98C814.61,-495.02 848.55,-480.13 876.05,-468.61"/>
<polygon fill="red" stroke="red" points="877.59,-471.76 885.47,-464.69 874.9,-465.3 877.59,-471.76"/>
</g>
<!-- zsh_interactive&#45;&gt;etc_zshenv -->
<g id="edge82" class="edge">
<title>zsh_interactive&#45;&gt;etc_zshenv</title>
<path fill="none" stroke="green" d="M798.55,-507.5C824.2,-496.92 858.38,-482.06 884.37,-470.24"/>
<polygon fill="green" stroke="green" points="885.91,-473.38 893.54,-466.03 882.99,-467.02 885.91,-473.38"/>
</g>
<!-- zsh_non_interactive&#45;&gt;etc_zshenv -->
<g id="edge74" class="edge">
<title>zsh_non_interactive&#45;&gt;etc_zshenv</title>
<path fill="none" stroke="orange" d="M916.33,-503.7C915.53,-495.98 915.3,-486.71 915.65,-478.11"/>
<polygon fill="orange" stroke="orange" points="919.14,-478.32 916.35,-468.1 912.16,-477.84 919.14,-478.32"/>
</g>
<!-- zsh_non_interactive&#45;&gt;etc_zshenv -->
<g id="edge88" class="edge">
<title>zsh_non_interactive&#45;&gt;etc_zshenv</title>
<path fill="none" stroke="blue" d="M928.16,-503.7C928.95,-495.98 929.18,-486.71 928.84,-478.11"/>
<polygon fill="blue" stroke="blue" points="932.33,-477.84 928.14,-468.1 925.34,-478.32 932.33,-477.84"/>
</g>
<!-- bash_running -->
<g id="node15" class="node">
<title>bash_running</title>
<ellipse fill="none" stroke="black" cx="492.24" cy="-90" rx="55.79" ry="18"/>
<text text-anchor="middle" x="492.24" y="-86.3" font-family="Times,serif" font-size="14.00">running...</text>
</g>
<!-- dot_bash_logout -->
<g id="node24" class="node">
<title>dot_bash_logout</title>
<ellipse fill="none" stroke="black" cx="492.24" cy="-18" rx="79.89" ry="18"/>
<text text-anchor="middle" x="492.24" y="-14.3" font-family="Times,serif" font-size="14.00">~/.bash_logout</text>
</g>
<!-- bash_running&#45;&gt;dot_bash_logout -->
<g id="edge11" class="edge">
<title>bash_running&#45;&gt;dot_bash_logout</title>
<path fill="none" stroke="red" d="M480.49,-72.05C478.85,-64.35 478.37,-55.03 479.03,-46.36"/>
<polygon fill="red" stroke="red" points="482.52,-46.66 480.42,-36.28 475.59,-45.71 482.52,-46.66"/>
</g>
<!-- bash_running&#45;&gt;dot_bash_logout -->
<g id="edge23" class="edge">
<title>bash_running&#45;&gt;dot_bash_logout</title>
<path fill="none" stroke="orange" d="M492.24,-71.7C492.24,-63.98 492.24,-54.71 492.24,-46.11"/>
<polygon fill="orange" stroke="orange" points="495.74,-46.1 492.24,-36.1 488.74,-46.1 495.74,-46.1"/>
</g>
<!-- bash_running&#45;&gt;dot_bash_logout -->
<g id="edge45" class="edge">
<title>bash_running&#45;&gt;dot_bash_logout</title>
<path fill="none" stroke="purple" d="M504,-72.05C505.64,-64.35 506.12,-55.03 505.45,-46.36"/>
<polygon fill="purple" stroke="purple" points="508.9,-45.71 504.07,-36.28 501.96,-46.66 508.9,-45.71"/>
</g>
<!-- zsh_running -->
<g id="node17" class="node">
<title>zsh_running</title>
<ellipse fill="none" stroke="black" cx="1028.24" cy="-162" rx="55.79" ry="18"/>
<text text-anchor="middle" x="1028.24" y="-158.3" font-family="Times,serif" font-size="14.00">running...</text>
</g>
<!-- dot_zlogout -->
<g id="node27" class="node">
<title>dot_zlogout</title>
<ellipse fill="none" stroke="black" cx="1028.24" cy="-90" rx="58.49" ry="18"/>
<text text-anchor="middle" x="1028.24" y="-86.3" font-family="Times,serif" font-size="14.00">~/.zlogout</text>
</g>
<!-- zsh_running&#45;&gt;dot_zlogout -->
<g id="edge71" class="edge">
<title>zsh_running&#45;&gt;dot_zlogout</title>
<path fill="none" stroke="red" d="M1022.36,-144.05C1021.55,-136.35 1021.3,-127.03 1021.64,-118.36"/>
<polygon fill="red" stroke="red" points="1025.14,-118.49 1022.33,-108.28 1018.15,-118.01 1025.14,-118.49"/>
</g>
<!-- zsh_running&#45;&gt;dot_zlogout -->
<g id="edge79" class="edge">
<title>zsh_running&#45;&gt;dot_zlogout</title>
<path fill="none" stroke="orange" d="M1034.12,-144.05C1034.94,-136.35 1035.18,-127.03 1034.85,-118.36"/>
<polygon fill="orange" stroke="orange" points="1038.33,-118.01 1034.16,-108.28 1031.35,-118.49 1038.33,-118.01"/>
</g>
<!-- dot_bash_profile -->
<g id="node19" class="node">
<title>dot_bash_profile</title>
<ellipse fill="none" stroke="black" cx="595.24" cy="-234" rx="81.49" ry="18"/>
<text text-anchor="middle" x="595.24" y="-230.3" font-family="Times,serif" font-size="14.00">~/.bash_profile</text>
</g>
<!-- etc_profile&#45;&gt;dot_bash_profile -->
<g id="edge5" class="edge">
<title>etc_profile&#45;&gt;dot_bash_profile</title>
<path fill="none" stroke="red" d="M466.65,-359.68C473.79,-341.04 494.12,-310.98 515.24,-288 525.7,-276.63 538.5,-265.32 551.15,-256.09"/>
<polygon fill="red" stroke="red" points="553.2,-258.93 559.41,-250.35 549.2,-253.18 553.2,-258.93"/>
</g>
<!-- etc_profile&#45;&gt;dot_bash_profile -->
<g id="edge16" class="edge">
<title>etc_profile&#45;&gt;dot_bash_profile</title>
<path fill="none" stroke="orange" d="M479.7,-360.02C491.55,-341.41 511.99,-311.12 533.24,-288 543.02,-277.37 554.85,-266.79 565.54,-257.92"/>
<polygon fill="orange" stroke="orange" points="567.89,-260.52 573.44,-251.49 563.48,-255.09 567.89,-260.52"/>
</g>
<!-- etc_profile&#45;&gt;dot_bash_profile -->
<g id="edge50" class="edge">
<title>etc_profile&#45;&gt;dot_bash_profile</title>
<path fill="none" stroke="black" d="M491.97,-361.02C508.8,-342.51 529.6,-311.54 551.24,-288 560.68,-277.74 572.02,-267.53 581.39,-258.86"/>
<polygon fill="black" stroke="black" points="583.83,-261.36 588.71,-251.96 579.03,-256.27 583.83,-261.36"/>
</g>
<!-- dot_bash_login -->
<g id="node20" class="node">
<title>dot_bash_login</title>
<ellipse fill="none" stroke="black" cx="422.24" cy="-234" rx="73.39" ry="18"/>
<text text-anchor="middle" x="422.24" y="-230.3" font-family="Times,serif" font-size="14.00">~/.bash_login</text>
</g>
<!-- etc_profile&#45;&gt;dot_bash_login -->
<g id="edge6" class="edge">
<title>etc_profile&#45;&gt;dot_bash_login</title>
<path fill="none" stroke="red" d="M454.71,-360.43C441.49,-336.32 425.97,-291.29 420.36,-262.25"/>
<polygon fill="red" stroke="red" points="423.81,-261.66 418.77,-252.35 416.9,-262.78 423.81,-261.66"/>
</g>
<!-- etc_profile&#45;&gt;dot_bash_login -->
<g id="edge17" class="edge">
<title>etc_profile&#45;&gt;dot_bash_login</title>
<path fill="none" stroke="orange" d="M463.57,-359.87C455.53,-335.56 440.72,-290.82 431.18,-262.01"/>
<polygon fill="orange" stroke="orange" points="434.4,-260.58 427.93,-252.19 427.75,-262.78 434.4,-260.58"/>
</g>
<!-- etc_profile&#45;&gt;dot_bash_login -->
<g id="edge51" class="edge">
<title>etc_profile&#45;&gt;dot_bash_login</title>
<path fill="none" stroke="black" d="M472.74,-359.87C469.79,-335.22 455.18,-289.54 441.47,-260.79"/>
<polygon fill="black" stroke="black" points="444.53,-259.08 436.87,-251.75 438.29,-262.25 444.53,-259.08"/>
</g>
<!-- etc_profile&#45;&gt;dot_profile -->
<g id="edge7" class="edge">
<title>etc_profile&#45;&gt;dot_profile</title>
<path fill="none" stroke="red" d="M440.28,-362.07C400.74,-337.29 332.5,-287.47 297.37,-258.11"/>
<polygon fill="red" stroke="red" points="299.47,-255.3 289.6,-251.47 294.93,-260.62 299.47,-255.3"/>
</g>
<!-- etc_profile&#45;&gt;dot_profile -->
<g id="edge18" class="edge">
<title>etc_profile&#45;&gt;dot_profile</title>
<path fill="none" stroke="orange" d="M447.48,-360.99C412.83,-335.5 345.08,-285.65 305.98,-256.88"/>
<polygon fill="orange" stroke="orange" points="307.76,-253.85 297.63,-250.74 303.61,-259.48 307.76,-253.85"/>
</g>
<!-- etc_profile&#45;&gt;dot_profile -->
<g id="edge52" class="edge">
<title>etc_profile&#45;&gt;dot_profile</title>
<path fill="none" stroke="black" d="M455.77,-360.43C425.84,-334.22 356.81,-283.26 313.22,-255.03"/>
<polygon fill="black" stroke="black" points="314.9,-251.96 304.59,-249.54 311.14,-257.86 314.9,-251.96"/>
</g>
<!-- etc_profile&#45;&gt;etc_bashrc -->
<g id="edge38" class="edge">
<title>etc_profile&#45;&gt;etc_bashrc</title>
<path fill="none" stroke="purple" d="M502.01,-362.67C525.78,-352.26 558.23,-338.07 584.41,-326.61"/>
<polygon fill="purple" stroke="purple" points="585.98,-329.75 593.74,-322.53 583.18,-323.33 585.98,-329.75"/>
</g>
<!-- dot_bash_profile&#45;&gt;bash_running -->
<g id="edge8" class="edge">
<title>dot_bash_profile&#45;&gt;bash_running</title>
<path fill="none" stroke="red" d="M587.62,-215.74C583.21,-196.61 577.71,-165.6 562.24,-144 552.79,-130.8 538.94,-119.92 525.98,-111.53"/>
<polygon fill="red" stroke="red" points="527.57,-108.39 517.22,-106.12 523.89,-114.35 527.57,-108.39"/>
</g>
<!-- dot_bash_profile&#45;&gt;bash_running -->
<g id="edge42" class="edge">
<title>dot_bash_profile&#45;&gt;bash_running</title>
<path fill="none" stroke="purple" d="M600.71,-215.74C601.21,-196.61 595.71,-165.6 580.24,-144 569.63,-129.19 553.49,-117.29 537.84,-108.56"/>
<polygon fill="purple" stroke="purple" points="539.2,-105.33 528.72,-103.78 535.95,-111.53 539.2,-105.33"/>
</g>
<!-- dot_bash_profile&#45;&gt;bash_env -->
<g id="edge19" class="edge">
<title>dot_bash_profile&#45;&gt;bash_env</title>
<path fill="none" stroke="orange" d="M566.11,-217.12C551.37,-207.83 533.7,-195.95 519.27,-185.69"/>
<polygon fill="orange" stroke="orange" points="520.92,-182.57 510.76,-179.55 516.82,-188.24 520.92,-182.57"/>
</g>
<!-- dot_bash_profile&#45;&gt;bash_env -->
<g id="edge53" class="edge">
<title>dot_bash_profile&#45;&gt;bash_env</title>
<path fill="none" stroke="black" d="M576.67,-216.41C563.48,-206.72 545.49,-194.4 529.45,-184.04"/>
<polygon fill="black" stroke="black" points="531.1,-180.94 520.78,-178.51 527.33,-186.84 531.1,-180.94"/>
</g>
<!-- dot_bash_login&#45;&gt;bash_running -->
<g id="edge9" class="edge">
<title>dot_bash_login&#45;&gt;bash_running</title>
<path fill="none" stroke="red" d="M408.64,-216.17C399.5,-197.42 392.11,-166.75 404.24,-144 412.69,-128.16 428.2,-116.22 443.94,-107.72"/>
<polygon fill="red" stroke="red" points="445.8,-110.71 453.19,-103.11 442.68,-104.44 445.8,-110.71"/>
</g>
<!-- dot_bash_login&#45;&gt;bash_running -->
<g id="edge43" class="edge">
<title>dot_bash_login&#45;&gt;bash_running</title>
<path fill="none" stroke="purple" d="M421.66,-215.83C417.41,-197.05 410.18,-166.61 422.24,-144 429.69,-130.03 442.64,-119.09 455.46,-110.87"/>
<polygon fill="purple" stroke="purple" points="457.46,-113.75 464.24,-105.61 453.86,-107.75 457.46,-113.75"/>
</g>
<!-- dot_bash_login&#45;&gt;bash_env -->
<g id="edge20" class="edge">
<title>dot_bash_login&#45;&gt;bash_env</title>
<path fill="none" stroke="orange" d="M433.31,-216.05C441.34,-207.07 452.34,-195.9 462.73,-186.12"/>
<polygon fill="orange" stroke="orange" points="465.14,-188.66 470.13,-179.31 460.4,-183.51 465.14,-188.66"/>
</g>
<!-- dot_bash_login&#45;&gt;bash_env -->
<g id="edge54" class="edge">
<title>dot_bash_login&#45;&gt;bash_env</title>
<path fill="none" stroke="black" d="M444.28,-216.76C453.92,-208.1 464.99,-197.25 474.15,-187.57"/>
<polygon fill="black" stroke="black" points="476.81,-189.85 481.02,-180.12 471.66,-185.1 476.81,-189.85"/>
</g>
<!-- dot_profile&#45;&gt;bash_running -->
<g id="edge10" class="edge">
<title>dot_profile&#45;&gt;bash_running</title>
<path fill="none" stroke="red" d="M291.84,-216.74C314.46,-198.49 356.72,-168.28 394.24,-144 412.5,-132.19 433.37,-119.71 451.25,-109.83"/>
<polygon fill="red" stroke="red" points="453.19,-112.76 460.31,-104.92 449.85,-106.61 453.19,-112.76"/>
</g>
<!-- dot_profile&#45;&gt;bash_running -->
<g id="edge44" class="edge">
<title>dot_profile&#45;&gt;bash_running</title>
<path fill="none" stroke="purple" d="M302.96,-218.03C330.42,-199.95 373.81,-168.86 412.24,-144 429.03,-133.14 448.02,-121.72 463.4,-112.27"/>
<polygon fill="purple" stroke="purple" points="465.33,-115.19 472,-106.95 461.65,-109.24 465.33,-115.19"/>
</g>
<!-- dot_profile&#45;&gt;sh_running -->
<g id="edge95" class="edge">
<title>dot_profile&#45;&gt;sh_running</title>
<path fill="none" stroke="red" stroke-dasharray="5,2" d="M266.94,-216.15C257.53,-191.94 244.59,-147.05 238.44,-118.13"/>
<polygon fill="red" stroke="red" points="241.87,-117.41 236.51,-108.27 235,-118.75 241.87,-117.41"/>
</g>
<!-- dot_profile&#45;&gt;sh_running -->
<g id="edge99" class="edge">
<title>dot_profile&#45;&gt;sh_running</title>
<path fill="none" stroke="orange" stroke-dasharray="5,2" d="M276,-215.87C271.71,-191.46 259.3,-146.43 249.15,-117.64"/>
<polygon fill="orange" stroke="orange" points="252.41,-116.37 245.68,-108.19 245.84,-118.78 252.41,-116.37"/>
</g>
<!-- dot_profile&#45;&gt;env -->
<g id="edge94" class="edge">
<title>dot_profile&#45;&gt;env</title>
<path fill="none" stroke="red" stroke-dasharray="5,2" d="M258.15,-216.76C247.62,-207.31 234.2,-195.27 222.74,-184.98"/>
<polygon fill="red" stroke="red" points="224.95,-182.26 215.17,-178.19 220.27,-187.47 224.95,-182.26"/>
</g>
<!-- dot_profile&#45;&gt;bash_env -->
<g id="edge21" class="edge">
<title>dot_profile&#45;&gt;bash_env</title>
<path fill="none" stroke="orange" d="M310.98,-220C345.24,-208.35 397.96,-191.22 437.77,-178.79"/>
<polygon fill="orange" stroke="orange" points="438.83,-182.13 447.34,-175.81 436.75,-175.44 438.83,-182.13"/>
</g>
<!-- dot_profile&#45;&gt;bash_env -->
<g id="edge55" class="edge">
<title>dot_profile&#45;&gt;bash_env</title>
<path fill="none" stroke="black" d="M316.31,-221.68C352.47,-210.56 405.56,-193.44 444.01,-180.56"/>
<polygon fill="black" stroke="black" points="445.58,-183.72 453.94,-177.21 443.35,-177.09 445.58,-183.72"/>
</g>
<!-- etc_bashrc&#45;&gt;dot_bash_profile -->
<g id="edge39" class="edge">
<title>etc_bashrc&#45;&gt;dot_bash_profile</title>
<path fill="none" stroke="purple" d="M621.01,-288.05C617.14,-280.09 612.44,-270.41 608.12,-261.51"/>
<polygon fill="purple" stroke="purple" points="611.15,-259.74 603.63,-252.28 604.85,-262.8 611.15,-259.74"/>
</g>
<!-- etc_bashrc&#45;&gt;dot_bash_login -->
<g id="edge40" class="edge">
<title>etc_bashrc&#45;&gt;dot_bash_login</title>
<path fill="none" stroke="purple" d="M585.85,-290.33C553.05,-279.23 507.92,-263.97 473.37,-252.29"/>
<polygon fill="purple" stroke="purple" points="474.06,-248.83 463.46,-248.94 471.82,-255.46 474.06,-248.83"/>
</g>
<!-- etc_bashrc&#45;&gt;dot_profile -->
<g id="edge41" class="edge">
<title>etc_bashrc&#45;&gt;dot_profile</title>
<path fill="none" stroke="purple" d="M562.66,-294.31C503.89,-284.51 416.03,-268.99 340.24,-252 335.83,-251.01 331.27,-249.93 326.7,-248.8"/>
<polygon fill="purple" stroke="purple" points="327.31,-245.34 316.75,-246.27 325.59,-252.12 327.31,-245.34"/>
</g>
<!-- dot_bashrc -->
<g id="node25" class="node">
<title>dot_bashrc</title>
<ellipse fill="none" stroke="black" cx="750.24" cy="-234" rx="55.79" ry="18"/>
<text text-anchor="middle" x="750.24" y="-230.3" font-family="Times,serif" font-size="14.00">~/.bashrc</text>
</g>
<!-- etc_bashrc&#45;&gt;dot_bashrc -->
<g id="edge28" class="edge">
<title>etc_bashrc&#45;&gt;dot_bashrc</title>
<path fill="none" stroke="green" d="M651.79,-288.59C668.5,-278.26 691.51,-264.9 711.15,-254.09"/>
<polygon fill="green" stroke="green" points="713.07,-257.03 720.18,-249.18 709.73,-250.88 713.07,-257.03"/>
</g>
<!-- etc_bashrc&#45;&gt;dot_bashrc -->
<g id="edge61" class="edge">
<title>etc_bashrc&#45;&gt;dot_bashrc</title>
<path fill="none" stroke="grey" d="M662.14,-289.29C680.26,-279.47 702.48,-266.71 720.14,-256.03"/>
<polygon fill="grey" stroke="grey" points="722.21,-258.86 728.91,-250.66 718.56,-252.89 722.21,-258.86"/>
</g>
<!-- dot_zshenv -->
<g id="node30" class="node">
<title>dot_zshenv</title>
<ellipse fill="none" stroke="black" cx="922.24" cy="-378" rx="56.59" ry="18"/>
<text text-anchor="middle" x="922.24" y="-374.3" font-family="Times,serif" font-size="14.00">~/.zshenv</text>
</g>
<!-- etc_zshenv&#45;&gt;dot_zshenv -->
<g id="edge66" class="edge">
<title>etc_zshenv&#45;&gt;dot_zshenv</title>
<path fill="none" stroke="red" d="M904.72,-432.41C902.07,-424.3 901.35,-414.35 902.57,-405.25"/>
<polygon fill="red" stroke="red" points="905.99,-405.99 904.76,-395.47 899.16,-404.46 905.99,-405.99"/>
</g>
<!-- etc_zshenv&#45;&gt;dot_zshenv -->
<g id="edge75" class="edge">
<title>etc_zshenv&#45;&gt;dot_zshenv</title>
<path fill="none" stroke="orange" d="M916.36,-432.05C915.55,-424.35 915.3,-415.03 915.64,-406.36"/>
<polygon fill="orange" stroke="orange" points="919.14,-406.49 916.33,-396.28 912.15,-406.01 919.14,-406.49"/>
</g>
<!-- etc_zshenv&#45;&gt;dot_zshenv -->
<g id="edge83" class="edge">
<title>etc_zshenv&#45;&gt;dot_zshenv</title>
<path fill="none" stroke="green" d="M928.12,-432.05C928.94,-424.35 929.18,-415.03 928.85,-406.36"/>
<polygon fill="green" stroke="green" points="932.33,-406.01 928.16,-396.28 925.35,-406.49 932.33,-406.01"/>
</g>
<!-- etc_zshenv&#45;&gt;dot_zshenv -->
<g id="edge89" class="edge">
<title>etc_zshenv&#45;&gt;dot_zshenv</title>
<path fill="none" stroke="blue" d="M939.76,-432.41C942.42,-424.3 943.14,-414.35 941.92,-405.25"/>
<polygon fill="blue" stroke="blue" points="945.33,-404.46 939.72,-395.47 938.5,-405.99 945.33,-404.46"/>
</g>
<!-- dot_bashrc&#45;&gt;bash_running -->
<g id="edge29" class="edge">
<title>dot_bashrc&#45;&gt;bash_running</title>
<path fill="none" stroke="green" d="M721.28,-218.46C689.83,-200.26 638.62,-168.51 593.24,-144 571.6,-132.31 546.99,-120.33 527.37,-110.73"/>
<polygon fill="green" stroke="green" points="528.7,-107.48 518.18,-106.21 525.61,-113.76 528.7,-107.48"/>
</g>
<!-- dot_bashrc&#45;&gt;bash_running -->
<g id="edge62" class="edge">
<title>dot_bashrc&#45;&gt;bash_running</title>
<path fill="none" stroke="grey" d="M731.49,-216.84C704.86,-198.42 655.3,-167.79 611.24,-144 587.58,-131.22 560.35,-118.09 537.81,-108.09"/>
<polygon fill="grey" stroke="grey" points="539.03,-104.81 528.46,-104.01 536.23,-111.22 539.03,-104.81"/>
</g>
<!-- dot_zlogin -->
<g id="node26" class="node">
<title>dot_zlogin</title>
<ellipse fill="none" stroke="black" cx="988.24" cy="-234" rx="51.99" ry="18"/>
<text text-anchor="middle" x="988.24" y="-230.3" font-family="Times,serif" font-size="14.00">~/.zlogin</text>
</g>
<!-- dot_zlogin&#45;&gt;zsh_running -->
<g id="edge70" class="edge">
<title>dot_zlogin&#45;&gt;zsh_running</title>
<path fill="none" stroke="red" d="M992.21,-215.7C996.12,-207.35 1001.74,-197.18 1007.45,-188.02"/>
<polygon fill="red" stroke="red" points="1010.39,-189.91 1012.9,-179.62 1004.52,-186.1 1010.39,-189.91"/>
</g>
<!-- dot_zlogin&#45;&gt;zsh_running -->
<g id="edge78" class="edge">
<title>dot_zlogin&#45;&gt;zsh_running</title>
<path fill="none" stroke="orange" d="M1003.32,-216.76C1008.89,-208.61 1014.91,-198.53 1019.77,-189.31"/>
<polygon fill="orange" stroke="orange" points="1023.02,-190.63 1024.35,-180.12 1016.76,-187.51 1023.02,-190.63"/>
</g>
<!-- dot_zprofile -->
<g id="node28" class="node">
<title>dot_zprofile</title>
<ellipse fill="none" stroke="black" cx="922.24" cy="-306" rx="59.59" ry="18"/>
<text text-anchor="middle" x="922.24" y="-302.3" font-family="Times,serif" font-size="14.00">~/.zprofile</text>
</g>
<!-- dot_zprofile&#45;&gt;dot_zlogin -->
<g id="edge77" class="edge">
<title>dot_zprofile&#45;&gt;dot_zlogin</title>
<path fill="none" stroke="orange" d="M937.88,-288.41C946.19,-279.61 956.54,-268.63 965.69,-258.92"/>
<polygon fill="orange" stroke="orange" points="968.4,-261.15 972.71,-251.47 963.31,-256.34 968.4,-261.15"/>
</g>
<!-- dot_zshrc -->
<g id="node29" class="node">
<title>dot_zshrc</title>
<ellipse fill="none" stroke="black" cx="1049.24" cy="-306" rx="49.29" ry="18"/>
<text text-anchor="middle" x="1049.24" y="-302.3" font-family="Times,serif" font-size="14.00">~/.zshrc</text>
</g>
<!-- dot_zprofile&#45;&gt;dot_zshrc -->
<g id="edge68" class="edge">
<title>dot_zprofile&#45;&gt;dot_zshrc</title>
<path fill="none" stroke="red" d="M982.27,-306C984.74,-306 987.2,-306 989.66,-306"/>
<polygon fill="red" stroke="red" points="989.8,-309.5 999.8,-306 989.8,-302.5 989.8,-309.5"/>
</g>
<!-- dot_zshrc&#45;&gt;zsh_running -->
<g id="edge85" class="edge">
<title>dot_zshrc&#45;&gt;zsh_running</title>
<path fill="none" stroke="green" d="M1051.14,-287.76C1052.69,-269.7 1053.94,-240.59 1049.24,-216 1047.54,-207.06 1044.34,-197.7 1040.95,-189.37"/>
<polygon fill="green" stroke="green" points="1044.15,-187.95 1036.96,-180.17 1037.73,-190.73 1044.15,-187.95"/>
</g>
<!-- dot_zshrc&#45;&gt;dot_zlogin -->
<g id="edge69" class="edge">
<title>dot_zshrc&#45;&gt;dot_zlogin</title>
<path fill="none" stroke="red" d="M1034.79,-288.41C1027.19,-279.69 1017.74,-268.85 1009.34,-259.21"/>
<polygon fill="red" stroke="red" points="1011.8,-256.71 1002.6,-251.47 1006.53,-261.31 1011.8,-256.71"/>
</g>
<!-- dot_zshenv&#45;&gt;zsh_running -->
<g id="edge90" class="edge">
<title>dot_zshenv&#45;&gt;zsh_running</title>
<path fill="none" stroke="blue" d="M972.62,-369.47C1021.63,-361 1091,-345.54 1107.24,-324 1140.78,-279.5 1088.82,-218.54 1054.51,-185.87"/>
<polygon fill="blue" stroke="blue" points="1056.78,-183.21 1047.07,-178.97 1052.02,-188.34 1056.78,-183.21"/>
</g>
<!-- dot_zshenv&#45;&gt;dot_zprofile -->
<g id="edge67" class="edge">
<title>dot_zshenv&#45;&gt;dot_zprofile</title>
<path fill="none" stroke="red" d="M916.36,-360.05C915.55,-352.35 915.3,-343.03 915.64,-334.36"/>
<polygon fill="red" stroke="red" points="919.14,-334.49 916.33,-324.28 912.15,-334.01 919.14,-334.49"/>
</g>
<!-- dot_zshenv&#45;&gt;dot_zprofile -->
<g id="edge76" class="edge">
<title>dot_zshenv&#45;&gt;dot_zprofile</title>
<path fill="none" stroke="orange" d="M928.12,-360.05C928.94,-352.35 929.18,-343.03 928.85,-334.36"/>
<polygon fill="orange" stroke="orange" points="932.33,-334.01 928.16,-324.28 925.35,-334.49 932.33,-334.01"/>
</g>
<!-- dot_zshenv&#45;&gt;dot_zshrc -->
<g id="edge84" class="edge">
<title>dot_zshenv&#45;&gt;dot_zshrc</title>
<path fill="none" stroke="green" d="M949.18,-362.15C968.2,-351.67 993.88,-337.52 1014.45,-326.17"/>
<polygon fill="green" stroke="green" points="1016.15,-329.24 1023.22,-321.35 1012.77,-323.11 1016.15,-329.24"/>
</g>
<!-- env&#45;&gt;sh_running -->
<g id="edge103" class="edge">
<title>env&#45;&gt;sh_running</title>
<path fill="none" stroke="green" stroke-dasharray="5,2" d="M207.25,-144.41C211.73,-136.16 217.24,-126.01 222.25,-116.78"/>
<polygon fill="green" stroke="green" points="225.34,-118.41 227.04,-107.96 219.19,-115.07 225.34,-118.41"/>
</g>
<!-- bash_env&#45;&gt;bash_running -->
<g id="edge22" class="edge">
<title>bash_env&#45;&gt;bash_running</title>
<path fill="none" stroke="orange" d="M486.36,-144.05C485.55,-136.35 485.3,-127.03 485.64,-118.36"/>
<polygon fill="orange" stroke="orange" points="489.14,-118.49 486.33,-108.28 482.15,-118.01 489.14,-118.49"/>
</g>
<!-- bash_env&#45;&gt;bash_running -->
<g id="edge56" class="edge">
<title>bash_env&#45;&gt;bash_running</title>
<path fill="none" stroke="black" d="M498.12,-144.05C498.94,-136.35 499.18,-127.03 498.85,-118.36"/>
<polygon fill="black" stroke="black" points="502.33,-118.01 498.16,-108.28 495.35,-118.49 502.33,-118.01"/>
</g>
<!-- bash -->
<g id="node33" class="node">
<title>bash</title>
<ellipse fill="none" stroke="black" cx="629.24" cy="-683.74" rx="32.49" ry="18"/>
<text text-anchor="middle" x="629.24" y="-680.04" font-family="Times,serif" font-size="14.00">bash</text>
</g>
<!-- bash&#45;&gt;bash_remote -->
<g id="edge34" class="edge">
<title>bash&#45;&gt;bash_remote</title>
<path fill="none" stroke="purple" d="M600.44,-675.32C568.08,-665.29 515.58,-646.85 473.92,-631.22"/>
<polygon fill="purple" stroke="purple" points="474.99,-627.88 464.4,-627.62 472.52,-634.43 474.99,-627.88"/>
</g>
<!-- bash&#45;&gt;bash_remote -->
<g id="edge46" class="edge">
<title>bash&#45;&gt;bash_remote</title>
<path fill="none" stroke="black" d="M602.51,-673.07C572.98,-662.38 524.18,-644.73 483.26,-629.93"/>
<polygon fill="black" stroke="black" points="484.45,-626.63 473.86,-626.52 482.07,-633.22 484.45,-626.63"/>
</g>
<!-- bash&#45;&gt;bash_remote -->
<g id="edge57" class="edge">
<title>bash&#45;&gt;bash_remote</title>
<path fill="none" stroke="grey" d="M606.15,-670.76C578.96,-659.67 533.29,-642.83 492.86,-628.82"/>
<polygon fill="grey" stroke="grey" points="493.84,-625.46 483.25,-625.51 491.56,-632.07 493.84,-625.46"/>
</g>
<!-- bash&#45;&gt;bash_local -->
<g id="edge1" class="edge">
<title>bash&#45;&gt;bash_local</title>
<path fill="none" stroke="red" d="M613.01,-667.91C609,-657.38 607.99,-642.95 609.98,-630.46"/>
<polygon fill="red" stroke="red" points="613.43,-631.09 612.35,-620.55 606.62,-629.46 613.43,-631.09"/>
</g>
<!-- bash&#45;&gt;bash_local -->
<g id="edge12" class="edge">
<title>bash&#45;&gt;bash_local</title>
<path fill="none" stroke="orange" d="M623.56,-665.63C622.47,-655.5 622.21,-642.44 622.8,-630.94"/>
<polygon fill="orange" stroke="orange" points="626.29,-631.19 623.57,-620.95 619.31,-630.65 626.29,-631.19"/>
</g>
<!-- bash&#45;&gt;bash_local -->
<g id="edge24" class="edge">
<title>bash&#45;&gt;bash_local</title>
<path fill="none" stroke="green" d="M634.92,-665.63C636.02,-655.5 636.27,-642.44 635.69,-630.94"/>
<polygon fill="green" stroke="green" points="639.18,-630.65 634.92,-620.95 632.2,-631.19 639.18,-630.65"/>
</g>
<!-- bash&#45;&gt;bash_local -->
<g id="edge30" class="edge">
<title>bash&#45;&gt;bash_local</title>
<path fill="none" stroke="blue" d="M645.48,-667.91C649.48,-657.38 650.49,-642.95 648.51,-630.46"/>
<polygon fill="blue" stroke="blue" points="651.87,-629.46 646.14,-620.55 645.06,-631.09 651.87,-629.46"/>
</g>
<!-- zsh -->
<g id="node34" class="node">
<title>zsh</title>
<ellipse fill="none" stroke="black" cx="842.24" cy="-683.74" rx="27" ry="18"/>
<text text-anchor="middle" x="842.24" y="-680.04" font-family="Times,serif" font-size="14.00">zsh</text>
</g>
<!-- zsh&#45;&gt;zsh_login -->
<g id="edge63" class="edge">
<title>zsh&#45;&gt;zsh_login</title>
<path fill="none" stroke="red" d="M827.45,-668.64C818.78,-657.87 808.25,-642.73 800.28,-629.8"/>
<polygon fill="red" stroke="red" points="803.1,-627.69 795,-620.87 797.08,-631.26 803.1,-627.69"/>
</g>
<!-- zsh&#45;&gt;zsh_login -->
<g id="edge72" class="edge">
<title>zsh&#45;&gt;zsh_login</title>
<path fill="none" stroke="orange" d="M836.64,-666.01C830.29,-654.7 820.34,-639.6 811.08,-627.12"/>
<polygon fill="orange" stroke="orange" points="813.7,-624.78 804.84,-618.97 808.14,-629.04 813.7,-624.78"/>
</g>
<!-- zsh&#45;&gt;zsh_non_login -->
<g id="edge80" class="edge">
<title>zsh&#45;&gt;zsh_non_login</title>
<path fill="none" stroke="green" d="M847.85,-666.01C854.03,-654.99 863.63,-640.38 872.68,-628.09"/>
<polygon fill="green" stroke="green" points="875.54,-630.11 878.81,-620.03 869.97,-625.88 875.54,-630.11"/>
</g>
<!-- zsh&#45;&gt;zsh_non_login -->
<g id="edge86" class="edge">
<title>zsh&#45;&gt;zsh_non_login</title>
<path fill="none" stroke="blue" d="M857.03,-668.64C865.71,-657.87 876.24,-642.73 884.2,-629.8"/>
<polygon fill="blue" stroke="blue" points="887.41,-631.26 889.49,-620.87 881.38,-627.69 887.41,-631.26"/>
</g>
<!-- sh -->
<g id="node35" class="node">
<title>sh</title>
<ellipse fill="none" stroke="black" cx="161.24" cy="-450" rx="27" ry="18"/>
<text text-anchor="middle" x="161.24" y="-446.3" font-family="Times,serif" font-size="14.00">sh</text>
</g>
<!-- sh&#45;&gt;sh_login -->
<g id="edge91" class="edge">
<title>sh&#45;&gt;sh_login</title>
<path fill="none" stroke="red" stroke-dasharray="5,2" d="M167.96,-432.41C173.86,-423.31 182.32,-411.9 190.48,-401.96"/>
<polygon fill="red" stroke="red" points="193.4,-403.93 197.2,-394.04 188.06,-399.4 193.4,-403.93"/>
</g>
<!-- sh&#45;&gt;sh_login -->
<g id="edge96" class="edge">
<title>sh&#45;&gt;sh_login</title>
<path fill="none" stroke="orange" stroke-dasharray="5,2" d="M177.22,-435.17C185.11,-426.33 194.32,-414.6 201.71,-404.15"/>
<polygon fill="orange" stroke="orange" points="204.68,-406 207.41,-395.76 198.89,-402.07 204.68,-406"/>
</g>
<!-- sh&#45;&gt;sh_non_login -->
<g id="edge100" class="edge">
<title>sh&#45;&gt;sh_non_login</title>
<path fill="none" stroke="green" stroke-dasharray="5,2" d="M145.27,-435.17C137.43,-426.39 128.29,-414.77 120.94,-404.37"/>
<polygon fill="green" stroke="green" points="123.77,-402.31 115.24,-396.02 117.98,-406.25 123.77,-402.31"/>
</g>
<!-- sh&#45;&gt;sh_non_login -->
<g id="edge104" class="edge">
<title>sh&#45;&gt;sh_non_login</title>
<path fill="none" stroke="blue" stroke-dasharray="5,2" d="M154.52,-432.41C148.79,-423.57 140.63,-412.53 132.69,-402.79"/>
<polygon fill="blue" stroke="blue" points="135.24,-400.38 126.12,-394.99 129.88,-404.89 135.24,-400.38"/>
</g>
</g>
</svg>
